<?xml version="1.0" encoding="UTF-8" standalone="no"?>
<svg xmlns="http://www.w3.org/2000/svg" width="420.0mm" height="297.0mm" viewBox="0 0 420.0 297.0">
<rect width="420.0" height="297.0" fill="white"/>
<rect x="5" y="5" width="410.0" height="287.0" fill="none" stroke="#888" stroke-width="0.4"/>
<text x="75" y="13" font-size="4.5" font-family="sans-serif" text-anchor="middle" fill="#333">Front / Profile</text>
<text x="200" y="13" font-size="4.5" font-family="sans-serif" text-anchor="middle" fill="#333">Side / Bottom</text>
<text x="335" y="13" font-size="4.5" font-family="sans-serif" text-anchor="middle" fill="#333">Isometric</text>
<text x="7" y="49.0" font-size="5" font-family="sans-serif" fill="#1a3a7a" font-weight="bold">Bezel</text>
<text x="7" y="149.0" font-size="5" font-family="sans-serif" fill="#1a5a1a" font-weight="bold">Enclosure</text>
<text x="7" y="244.0" font-size="5" font-family="sans-serif" fill="#7a3a1a" font-weight="bold">Wedge</text>
<line x1="5" y1="97.0" x2="415.0" y2="97.0" stroke="#ccc" stroke-width="0.4" stroke-dasharray="3,2"/>
<line x1="5" y1="197.0" x2="415.0" y2="197.0" stroke="#ccc" stroke-width="0.4" stroke-dasharray="3,2"/>
<text x="8" y="290" font-size="3.5" font-family="sans-serif" fill="#555">Scale 1:3</text>
<text x="75" y="14" font-size="3" font-family="sans-serif" fill="#666" text-anchor="middle">185 x 144 mm</text>
<text x="75" y="97" font-size="3" font-family="sans-serif" fill="#666" text-anchor="middle">185 x 144 mm</text>
<text x="200" y="14" font-size="3" font-family="sans-serif" fill="#666" text-anchor="middle">7 mm thick</text>
<text x="200" y="97" font-size="3" font-family="sans-serif" fill="#666" text-anchor="middle">13.6 mm deep</text>
<text x="75" y="200" font-size="3" font-family="sans-serif" fill="#666" text-anchor="middle">L-profile 1:1 legs</text>
<text x="200" y="200" font-size="3" font-family="sans-serif" fill="#666" text-anchor="middle">80 x 102 mm</text>
<text x="200" y="260" font-size="3" font-family="sans-serif" fill="#666" text-anchor="middle">• 4× RPi3 mounting holes</text>
<rect x="250" y="272" width="165" height="21" fill="#f4f4f8" stroke="#888" stroke-width="0.3"/>
<text x="252" y="278.5" font-size="4" font-family="sans-serif" font-weight="bold" fill="#111">NY&amp;E Yardmaster Terminal v3</text>
<text x="252" y="283.5" font-size="3.2" font-family="sans-serif" fill="#444">Bezel 185x144x7  |  Enc 185x144x13.6  |  Wedge 80x102x102</text>
<text x="252" y="288.5" font-size="3.2" font-family="sans-serif" fill="#444">generate_yardmasterdisplay.py  |  2026-06-25</text>
<!-- Bezel Front -->
<g transform="translate(75.000,47.000) scale(0.333333,-0.333333)" stroke="#1a1a1a" stroke-width="2.8" fill="none">
<path id= "1" d=" M -92.5 -67 L -92.5 67 " />
<path d="M-87.5 -72 A5 5 0 0 0 -92.5 -67" /><path id= "3" d=" M 87.5 -72 L -87.5 -72 " />
<path d="M-92.5 67 A5 5 0 0 0 -87.5 72" /><path id= "5" d=" M -87.5 72 L 87.5 72 " />
<path id= "6" d=" M 92.5 67 L 92.5 -67 " />
<path d="M92.5 -67 A5 5 0 0 0 87.5 -72" /><path d="M87.5 72 A5 5 0 0 0 92.5 67" /><path id= "9" d=" M 82.5 -63 L -82.5 -63 " />
<path d="M83.5 -62 A1 1 0 0 0 82.5 -63" /><path d="M-82.5 -63 A1 1 0 0 0 -83.5 -62" /><path id= "12" d=" M 83.5 62 L 83.5 -62 " />
<path id= "13" d=" M -83.5 -62 L -83.5 62 " />
<path d="M82.5 63 A1 1 0 0 0 83.5 62" /><path d="M-83.5 62 A1 1 0 0 0 -82.5 63" /><path id= "16" d=" M -82.5 63 L 82.5 63 " />
<path id= "17" d=" M 83 -50 L -83 -50 " />
<path id= "18" d=" M 83 -50 L 83 50 " />
<path id= "19" d=" M -83 -50 L -83 50 " />
<path id= "20" d=" M 83 50 L -83 50 " />
<circle cx ="-78.5" cy ="-57.5" r ="1.6" /><circle cx ="78.5" cy ="-57.5" r ="1.6" /><circle cx ="-78.5" cy ="57.5" r ="1.6" /><circle cx ="78.5" cy ="57.5" r ="1.6" /><circle cx ="-78.5" cy ="-57.5" r ="3.5" /><circle cx ="78.5" cy ="-57.5" r ="3.5" /><circle cx ="-78.5" cy ="57.5" r ="3.5" /><circle cx ="78.5" cy ="57.5" r ="3.5" />
</g>
<!-- Bezel Side -->
<g transform="translate(198.833,47.000) scale(0.333333,-0.333333)" stroke="#1a1a1a" stroke-width="2.8" fill="none">
<path id= "1" d=" M 0 -92.5 L 6.5 -92.5 " />
<path d="M0, -92.5 Q0, -92.4843 0, -92.4686  Q0, -92.4216 0, -92.3746  Q0, -92.297 0, -92.2194  Q0, -92.1121 0, -92.0048  Q0, -91.8692 0, -91.7336  Q0, -91.5714 0, -91.4092  Q0, -91.2223 0, -91.0355  Q0, -90.8265 0, -90.6174  Q0, -90.3888 0, -90.1602  Q0, -89.9148 0, -89.6694  Q0, -89.4104 0, -89.1514  Q0, -88.882 0, -88.6126  Q0, -88.0618 0, -87.5 " /><path id= "3" d=" M 0 -87.5 L 0 87.5 " />
<path d="M0, 92.5 Q0, 92.4843 0, 92.4686  Q0, 92.4216 0, 92.3746  Q0, 92.297 0, 92.2194  Q0, 92.1121 0, 92.0048  Q0, 91.8692 0, 91.7336  Q0, 91.5714 0, 91.4092  Q0, 91.2223 0, 91.0355  Q0, 90.8265 0, 90.6174  Q0, 90.3888 0, 90.1602  Q0, 89.9148 0, 89.6694  Q0, 89.4104 0, 89.1514  Q0, 88.882 0, 88.6126  Q0, 88.0618 0, 87.5 " /><path d="M7, -92 Q7, -91.9859 7, -91.9717  Q7, -91.9294 7, -91.8872  Q7, -91.8173 7, -91.7475  Q7, -91.6509 7, -91.5544  Q7, -91.4323 7, -91.3103  Q7, -91.1643 7, -91.0182  Q7, -90.8501 7, -90.682  Q7, -90.4938 7, -90.3057  Q7, -90.0999 7, -89.8941  Q7, -89.6733 7, -89.4525  Q7, -89.2194 7, -88.9863  Q7, -88.7438 7, -88.5013  Q7, -88.0056 7, -87.5 " /><path id= "6" d=" M 7 -87.5 L 7 87.5 " />
<path d="M7, 87.5 L7, 88.0038  L7, 88.5013  L7, 88.9863  L7, 89.4525  L7, 89.8941  L7, 90.3057  L7, 90.682  L7, 91.0182  L7, 91.3103  L7, 91.5544  L7, 91.7475  L7, 91.8872  L7, 91.9717  L7, 92 " /><path d="M6.5 -92.5 A0.5 0.5 0 0 1 7 -92" /><path id= "9" d=" M 0 92.5 L 6.5 92.5 " />
<path d="M6.5 92.5 A0.5 0.5 0 0 0 7 92" />
</g>
<!-- Bezel ISO -->
<g transform="translate(335.790,46.558) scale(0.333333,-0.333333)" stroke="#1a1a1a" stroke-width="2.8" fill="none">
<path id= "1" d=" M -70.15 -19.8 L -70.15 89.6105 " />
<path id= "2" d=" M -64.3718 94.7571 L -68.968 92.1035 " />
<path d="M-66.718, -25.7444 C-67.6375, -25.2167 -68.5222, -24.2801 -69.1521, -23.1844  C-69.7848, -22.0919 -70.1527, -20.8591 -70.15, -19.8 " /><path d="M-70.15, 89.6105 C-70.1502, 90.1772 -70.048, 90.6966 -69.8413, 91.1304  C-69.6425, 91.5496 -69.3427, 91.888 -68.968, 92.1035 " /><path id= "5" d=" M 64.3718 -94.7571 L 59.7756 -97.4107 " />
<path id= "6" d=" M 54.3008 -72.6537 L -59.1041 -7.17937 " />
<path id= "7" d=" M -59.1041 -7.17937 L -59.1041 72.4991 " />
<path id= "8" d=" M 57.0256 -97.1879 L -66.718 -25.7444 " />
<path d="M59.7756, -97.4107 C59.4042, -97.626 58.9646, -97.7167 58.5055, -97.6811  C58.0238, -97.6448 57.5195, -97.4731 57.0256, -97.1879 " /><path d="M54.3008, -87.5693 C54.3009, -87.7052 54.2701, -87.7796 54.2548, -87.8041  C54.2419, -87.8245 54.2396, -87.8225 54.2401, -87.8229 " /><path id= "11" d=" M 54.3008 13.6763 L 54.3008 -87.5693 " />
<path d="M53.4901, 15.0804 C53.6674, 14.9821 53.8998, 14.7498 54.0574, 14.4712  C54.2195, 14.1957 54.3042, 13.8788 54.3008, 13.6763 " /><path d="M-63.4325, 82.5157 C-63.4324, 82.5151 -63.4329, 82.518 -63.4093, 82.5189  C-63.3807, 82.5201 -63.3007, 82.5098 -63.1825, 82.4414 " /><path id= "14" d=" M -63.1825 82.4414 L 53.4901 15.0804 " />
<path id= "15" d=" M -59.3792 -13.0947 L -62.2076 -14.7277 " />
<path id= "16" d=" M -55.8792 -19.1569 L -58.7076 -20.7899 " />
<path id= "17" d=" M 51.6366 -77.1897 L 48.8081 -78.8227 " />
<path id= "18" d=" M 54.3008 -83.7344 L 52.3081 -84.8849 " />
<path id= "19" d=" M -59.8614 80.524 L -62.2076 79.1694 " />
<path id= "20" d=" M -55.8792 74.7402 L -58.7076 73.1072 " />
<path id= "21" d=" M 51.1543 16.429 L 48.8081 15.0744 " />
<path id= "22" d=" M 54.3008 10.1627 L 52.3081 9.01224 " />
</g>
<g   fill="none"
   stroke="rgb(0, 0, 0)"
   stroke-linecap="butt"
   stroke-linejoin="miter"
   stroke-width="1.0"
   transform="scale(1, -1)"
  >
<path d="M-64.3718 94.7571 A5 2.88675 -60 0 0 -61.8718 94.5095" />
<path id= "2" d=" M -61.8718 94.5095 L 61.8718 23.066 " />
<path d="M65.4074 -92.4682 A5 2.88675 -60 0 0 64.3718 -94.7571" />
<path d="M65.4074 16.9423 A5 2.88675 120 0 1 61.8718 23.066" />
<path id= "5" d=" M 65.4074 -92.4682 L 65.4074 16.9423 " />
<path d="M-59.397, -7.34847 C-59.2112, -7.24119 -59.1035, -7.17905 -59.1041, -7.17937 " /><path d="M-59.1041, -7.17937 C-59.1035, -7.17905 -59.2112, -7.24119 -59.397, -7.34847 " /><path id= "8" d=" M 54.3008 -74.6249 L -60.8112 -8.16497 " />
<path id= "9" d=" M -59.397 -7.34847 L -60.8112 -8.16497 " />
<path id= "10" d=" M -60.8112 -8.16497 L -60.8112 73.4847 " />
<path id= "11" d=" M 54.3008 7.02477 L -60.8112 73.4847 " />
<path id= "12" d=" M -58.0183 -20.3919 L 48.3221 -81.7875 " />
<path id= "13" d=" M 52.9975 -84.4869 L 54.3008 -85.2393 " />
<path id= "14" d=" M -61.1647 -14.1256 L -61.1647 73.8079 " />
<path id= "15" d=" M -61.1647 79.7715 L -61.1647 81.2764 " />
<path d="M-59.3263 -18.412 A1.6 0.92376 120 0 1 -61.2576 -16.3732" />
<path d="M-61.2576 -16.3732 A1.6 0.92376 120 0 1 -59.6576 -19.1444" />
<path d="M-59.6576 -19.1444 A1.6 0.92376 120 0 1 -59.3263 -18.412" />
<path d="M51.6895 -82.507 A1.6 0.92376 120 0 1 49.7581 -80.4681" />
<path d="M49.7581 -80.4681 A1.6 0.92376 120 0 1 51.3581 -83.2394" />
<path d="M51.3581 -83.2394 A1.6 0.92376 120 0 1 51.6895 -82.507" />
<path d="M-55.1543 -17.5547 A3.5 2.02073 120 0 1 -59.3792 -13.0947" />
<path d="M-55.8792 -19.1569 A3.5 2.02073 120 0 1 -55.1543 -17.5547" />
<path d="M54.3008 -78.093 A3.5 2.02073 120 0 1 51.6366 -77.1897" />
<path d="M-55.1543 76.3424 A3.5 2.02073 120 0 1 -55.5037 78.008" />
<path d="M-55.8792 74.7402 A3.5 2.02073 120 0 1 -55.1543 76.3424" />
<path d="M-59.3263 75.4851 A1.6 0.92376 120 0 1 -61.2576 77.5239" />
<path d="M-61.2576 77.5239 A1.6 0.92376 120 0 1 -59.6576 74.7527" />
<path d="M-59.6576 74.7527 A1.6 0.92376 120 0 1 -59.3263 75.4851" />
<path d="M51.6895 11.3901 A1.6 0.92376 120 0 1 49.7581 13.429" />
<path d="M49.7581 13.429 A1.6 0.92376 120 0 1 51.3581 10.6577" />
<path d="M51.3581 10.6577 A1.6 0.92376 120 0 1 51.6895 11.3901" />
<path d="M-57.9828 -19.1877 A3.5 2.02073 120 0 1 -62.2076 -14.7277" />
<path d="M-62.2076 -14.7277 A3.5 2.02073 120 0 1 -58.7076 -20.7899" />
<path d="M-58.7076 -20.7899 A3.5 2.02073 120 0 1 -57.9828 -19.1877" />
<path d="M53.033 -83.2827 A3.5 2.02073 120 0 1 48.8081 -78.8227" />
<path d="M48.8081 -78.8227 A3.5 2.02073 120 0 1 52.3081 -84.8849" />
<path d="M52.3081 -84.8849 A3.5 2.02073 120 0 1 53.033 -83.2827" />
<path d="M-57.9828 74.7094 A3.5 2.02073 120 0 1 -62.2076 79.1694" />
<path d="M-62.2076 79.1694 A3.5 2.02073 120 0 1 -58.7076 73.1072" />
<path d="M-58.7076 73.1072 A3.5 2.02073 120 0 1 -57.9828 74.7094" />
<path d="M53.033 10.6145 A3.5 2.02073 120 0 1 48.8081 15.0744" />
<path d="M48.8081 15.0744 A3.5 2.02073 120 0 1 52.3081 9.01224" />
<path d="M52.3081 9.01224 A3.5 2.02073 120 0 1 53.033 10.6145" />
</g>
<!-- Enc Front -->
<g transform="translate(75.000,147.000) scale(0.333333,-0.333333)" stroke="#1a1a1a" stroke-width="2.8" fill="none">
<path d="M-84, -50 C-83.8688, -49.8688 -83.7395, -49.7395 -83.6464, -49.6464  C-83.634, -49.634 -83.6215, -49.6215 -83.6091, -49.6091  C-83.5865, -49.5865 -83.5666, -49.5666 -83.5495, -49.5495  C-83.5424, -49.5424 -83.5352, -49.5352 -83.5281, -49.5281  C-83.5229, -49.5229 -83.5177, -49.5177 -83.5125, -49.5125  C-83.5094, -49.5094 -83.5063, -49.5063 -83.5031, -49.5031  C-83.5021, -49.5021 -83.501, -49.501 -83.5, -49.5 " /><path id= "2" d=" M -83.5 -49.5 L -83.5 -62 " />
<path id= "3" d=" M -83.5 -49.5 L -92.5 -49.5 " />
<path d="M-92, -50 C-92.1312, -49.8688 -92.2605, -49.7395 -92.3536, -49.6464  C-92.366, -49.634 -92.3785, -49.6215 -92.3909, -49.6091  C-92.4135, -49.5865 -92.4334, -49.5666 -92.4505, -49.5495  C-92.4576, -49.5424 -92.4648, -49.5352 -92.4719, -49.5281  C-92.4771, -49.5229 -92.4823, -49.5177 -92.4875, -49.5125  C-92.4906, -49.5094 -92.4937, -49.5063 -92.4969, -49.5031  C-92.4979, -49.5021 -92.499, -49.501 -92.5, -49.5 " /><path d="M-83.5 -62 A1 1 0 0 1 -82.5 -63" /><path id= "6" d=" M -92.5 -67 L -92.5 -49.5 " />
<path id= "7" d=" M -82.5 -63 L 82.5 -63 " />
<path d="M-87.5 -72 A5 5 0 0 0 -92.5 -67" /><path d="M82.5 -63 A1 1 0 0 1 83.5 -62" /><path id= "10" d=" M 87.5 -72 L -87.5 -72 " />
<path id= "11" d=" M 83.5 -62 L 83.5 62 " />
<path d="M92.5 -67 A5 5 0 0 0 87.5 -72" /><path d="M83.5 62 A1 1 0 0 1 82.5 63" /><path id= "14" d=" M 92.5 67 L 92.5 -67 " />
<path id= "15" d=" M 82.5 63 L -82.5 63 " />
<path d="M87.5 72 A5 5 0 0 0 92.5 67" /><path d="M-82.5 63 A1 1 0 0 1 -83.5 62" /><path id= "18" d=" M -87.5 72 L 87.5 72 " />
<path id= "19" d=" M -83.5 62 L -83.5 6.5 " />
<path d="M-84, 7 C-83.8688, 6.8688 -83.7395, 6.73953 -83.6464, 6.64645  C-83.634, 6.63399 -83.6215, 6.62154 -83.6091, 6.60908  C-83.5865, 6.58646 -83.5666, 6.5666 -83.5495, 6.54952  C-83.5424, 6.54236 -83.5352, 6.53521 -83.5281, 6.52806  C-83.5229, 6.52288 -83.5177, 6.51771 -83.5125, 6.51254  C-83.5094, 6.50941 -83.5063, 6.50627 -83.5031, 6.50314  C-83.5021, 6.5021 -83.501, 6.50105 -83.5, 6.5 " /><path d="M-92.5 67 A5 5 0 0 0 -87.5 72" /><path id= "22" d=" M -83.5 6.5 L -92.5 6.5 " />
<path d="M-92, 7 C-92.1312, 6.8688 -92.2605, 6.73953 -92.3536, 6.64645  C-92.366, 6.63399 -92.3785, 6.62154 -92.3909, 6.60908  C-92.4135, 6.58646 -92.4334, 6.5666 -92.4505, 6.54952  C-92.4576, 6.54236 -92.4648, 6.53521 -92.4719, 6.52806  C-92.4771, 6.52288 -92.4823, 6.51771 -92.4875, 6.51254  C-92.4906, 6.50941 -92.4937, 6.50627 -92.4969, 6.50314  C-92.4979, 6.5021 -92.499, 6.50105 -92.5, 6.5 " /><path id= "24" d=" M -92.5 6.5 L -92.5 67 " />
<path id= "25" d=" M -83.5 -62 L -83.5 -49.5 " />
<path id= "26" d=" M -82.5 -49.5 L -83.5 -49.5 " />
<path id= "27" d=" M 83.5 -62 L 83.5 62 " />
<path id= "28" d=" M -83.5 6.5 L -83.5 62 " />
<path id= "29" d=" M -82.5 6.5 L -83.5 6.5 " />
<path id= "30" d=" M -82.5 -49.5 L -82.5 6.5 " />
<circle cx ="-78.5" cy ="-57.5" r ="3.5" /><circle cx ="78.5" cy ="-57.5" r ="3.5" /><circle cx ="-78.5" cy ="57.5" r ="3.5" /><circle cx ="78.5" cy ="57.5" r ="3.5" /><circle cx ="-78.5" cy ="-57.5" r ="1.25" /><circle cx ="78.5" cy ="-57.5" r ="1.25" /><circle cx ="-78.5" cy ="57.5" r ="1.25" /><circle cx ="78.5" cy ="57.5" r ="1.25" />
</g>
<!-- Enc Left -->
<g transform="translate(202.267,147.000) scale(0.333333,-0.333333)" stroke="#1a1a1a" stroke-width="2.8" fill="none">
<path id= "1" d=" M -13.6 67 L -13.6 50 " />
<path d="M-13.6, 71.5 Q-13.6, 71.4859 -13.6, 71.4717  Q-13.6, 71.4294 -13.6, 71.3872  Q-13.6, 71.3173 -13.6, 71.2475  Q-13.6, 71.1509 -13.6, 71.0544  Q-13.6, 70.9323 -13.6, 70.8103  Q-13.6, 70.6643 -13.6, 70.5182  Q-13.6, 70.3501 -13.6, 70.182  Q-13.6, 69.9938 -13.6, 69.8057  Q-13.6, 69.5999 -13.6, 69.3941  Q-13.6, 69.1733 -13.6, 68.9525  Q-13.6, 68.7194 -13.6, 68.4863  Q-13.6, 68.2438 -13.6, 68.0013  Q-13.6, 67.5056 -13.6, 67 " /><path id= "3" d=" M -13.6 62 L -13.6 -62 " />
<path d="M-13.6, 67 L-13.6, 67.5038  L-13.6, 68.0013  L-13.6, 68.4863  L-13.6, 68.9525  L-13.6, 69.3941  L-13.6, 69.8057  L-13.6, 70.182  L-13.6, 70.5182  L-13.6, 70.8103  L-13.6, 71.0544  L-13.6, 71.2475  L-13.6, 71.3872  L-13.6, 71.4717  L-13.6, 71.5 " /><path id= "5" d=" M -13.6 -67 L -13.6 -62 " />
<path id= "6" d=" M -13.6 62 L -13.6 67 " />
<path d="M-13.6, -71.5 Q-13.6, -71.4859 -13.6, -71.4717  Q-13.6, -71.4294 -13.6, -71.3872  Q-13.6, -71.3173 -13.6, -71.2475  Q-13.6, -71.1509 -13.6, -71.0544  Q-13.6, -70.9323 -13.6, -70.8103  Q-13.6, -70.6643 -13.6, -70.5182  Q-13.6, -70.3501 -13.6, -70.182  Q-13.6, -69.9938 -13.6, -69.8057  Q-13.6, -69.5999 -13.6, -69.3941  Q-13.6, -69.1733 -13.6, -68.9525  Q-13.6, -68.7194 -13.6, -68.4863  Q-13.6, -68.2438 -13.6, -68.0013  Q-13.6, -67.5056 -13.6, -67 " /><path d="M-13.6, -67 L-13.6, -67.5038  L-13.6, -68.0013  L-13.6, -68.4863  L-13.6, -68.9525  L-13.6, -69.3941  L-13.6, -69.8057  L-13.6, -70.182  L-13.6, -70.5182  L-13.6, -70.8103  L-13.6, -71.0544  L-13.6, -71.2475  L-13.6, -71.3872  L-13.6, -71.4717  L-13.6, -71.5 " /><path id= "9" d=" M -13.6 -7 L -13.6 -67 " />
<path d="M-13.6, 50 Q-13.5984, 49.972 -13.5969, 49.944  Q-13.5892, 49.8883 -13.5719, 49.8349  Q-13.5521, 49.7823 -13.5234, 49.734  Q-13.4923, 49.6872 -13.4536, 49.6464  Q-13.4326, 49.6278 -13.4117, 49.6091  Q-13.367, 49.5751 -13.3169, 49.5495  Q-13.2657, 49.5264 -13.2113, 49.5125  Q-13.1562, 49.5014 -13.1, 49.5 " /><path d="M-13.6, 50 Q-13.5986, 49.9438 -13.5875, 49.8887  Q-13.5736, 49.8343 -13.5505, 49.7831  Q-13.5249, 49.733 -13.4909, 49.6883  Q-13.4722, 49.6674 -13.4536, 49.6464  Q-13.4326, 49.6278 -13.4117, 49.6091  Q-13.367, 49.5751 -13.3169, 49.5495  Q-13.2657, 49.5264 -13.2113, 49.5125  Q-13.1562, 49.5014 -13.1, 49.5 " /><path d="M-13.6 71.5 A0.5 0.5 0 0 0 -13.1 72" /><path d="M-13.6 71.5 A0.5 0.5 0 0 0 -13.1 72" /><path d="M-13.6 -71.5 A0.5 0.5 0 0 1 -13.1 -72" /><path d="M-13.6, -7 Q-13.5986, -6.94382 -13.5875, -6.88874  Q-13.5736, -6.83428 -13.5505, -6.78306  Q-13.5249, -6.73305 -13.4909, -6.68826  Q-13.4722, -6.66735 -13.4536, -6.64645  Q-13.4326, -6.62777 -13.4117, -6.60908  Q-13.367, -6.57514 -13.3169, -6.54952  Q-13.2657, -6.52639 -13.2113, -6.51254  Q-13.1562, -6.50139 -13.1, -6.5 " /><path d="M-13.6 -71.5 A0.5 0.5 0 0 1 -13.1 -72" /><path d="M-13.6, -7 Q-13.5986, -6.94382 -13.5875, -6.88874  Q-13.5736, -6.83428 -13.5505, -6.78306  Q-13.5249, -6.73305 -13.4909, -6.68826  Q-13.4722, -6.66735 -13.4536, -6.64645  Q-13.4326, -6.62777 -13.4117, -6.60908  Q-13.367, -6.57514 -13.3169, -6.54952  Q-13.2657, -6.52639 -13.2113, -6.51254  Q-13.1562, -6.50139 -13.1, -6.5 " /><path id= "18" d=" M 0 49.5 L -13.1 49.5 " />
<path id= "19" d=" M 0 67 L 0 49.5 " />
<path d="M0, 67 Q0, 67.5618 0, 68.1126  Q0, 68.382 0, 68.6514  Q0, 68.9104 0, 69.1694  Q0, 69.4148 0, 69.6602  Q0, 69.8888 0, 70.1174  Q0, 70.3265 0, 70.5355  Q0, 70.7223 0, 70.9092  Q0, 71.0714 0, 71.2336  Q0, 71.3692 0, 71.5048  Q0, 71.6121 0, 71.7194  Q0, 71.797 0, 71.8746  Q0, 71.9216 0, 71.9686  Q0, 71.9843 0, 72 " /><path id= "21" d=" M 0 72 L -13.1 72 " />
<path id= "22" d=" M 0 -72 L -13.1 -72 " />
<path d="M0, -67 L0, -67.5598  L0, -68.1126  L0, -68.6514  L0, -69.1694  L0, -69.6602  L0, -70.1174  L0, -70.5355  L0, -70.9092  L0, -71.2336  L0, -71.5048  L0, -71.7194  L0, -71.8746  L0, -71.9686  L0, -72 " /><path id= "24" d=" M 0 -6.5 L -13.1 -6.5 " />
<path id= "25" d=" M 0 -6.5 L 0 -67 " />
<path id= "26" d=" M -3 49.5 L -3 -6.5 " />
<path id= "27" d=" M 0 49.5 L 0 -6.5 " />
</g>
<!-- Enc ISO -->
<g transform="translate(333.432,146.109) scale(0.333333,-0.333333)" stroke="#1a1a1a" stroke-width="2.8" fill="none">
<path id= "1" d=" M -49.6339 -80.1771 L -49.6339 -90.2637 " />
<path d="M-49.6339, -90.2637 C-49.634, -90.3996 -49.6032, -90.474 -49.5879, -90.4985  C-49.575, -90.5189 -49.5727, -90.517 -49.5732, -90.5173 " /><path d="M-52.3587, -99.8823 C-52.8494, -100.166 -53.3504, -100.337 -53.8293, -100.375  C-54.2918, -100.412 -54.7348, -100.322 -55.1087, -100.105 " /><path id= "4" d=" M 71.3849 -28.4388 L -52.3587 -99.8823 " />
<path d="M74.8169, -22.4945 C74.8197, -23.5547 74.4509, -24.7891 73.8169, -25.8824  C73.1872, -26.9766 72.3034, -27.9117 71.3849, -28.4388 " /><path d="M68.0994, 79.8212 C68.0999, 79.8211 68.099, 79.8215 68.0966, 79.8222  C68.0942, 79.8232 68.0874, 79.824 68.0762, 79.8245  C68.0476, 79.8256 67.9676, 79.8154 67.8494, 79.747 " /><path id= "7" d=" M 74.8169 86.9161 L 74.8169 -22.4945 " />
<path id= "8" d=" M 67.8494 79.747 L -48.8232 12.386 " />
<path d="M73.6349, 89.4091 C74.0071, 89.195 74.3055, 88.8596 74.5042, 88.4443  C74.7135, 88.0089 74.8171, 87.4864 74.8169, 86.9161 " /><path d="M-48.8232, 12.386 C-49.0005, 12.2876 -49.2329, 12.0554 -49.3905, 11.7768  C-49.5526, 11.5013 -49.6373, 11.1844 -49.6339, 10.9819 " /><path id= "11" d=" M -49.6339 10.9819 L -49.6339 -34.2141 " />
<path id= "12" d=" M -49.6339 -34.2141 L -55.7907 -37.7688 " />
<path id= "13" d=" M -64.3718 -94.7571 L -55.1087 -100.105 " />
<path id= "14" d=" M 64.3718 94.7571 L 73.6349 89.4091 " />
<path id= "15" d=" M -49.6339 -86.4289 L -48.7726 -86.9261 " />
<path id= "16" d=" M -51.6366 -77.1897 L -45.2726 -80.8639 " />
<path id= "17" d=" M 55.8792 -19.1569 L 62.2432 -22.8311 " />
<path id= "18" d=" M 59.3792 -13.0947 L 65.7432 -16.769 " />
<path id= "19" d=" M -49.6339 7.46825 L -48.7726 6.97099 " />
<path id= "20" d=" M -46.4874 13.7346 L -45.2726 13.0332 " />
<path id= "21" d=" M 57.5283 73.7881 L 62.2432 71.066 " />
<path id= "22" d=" M 64.5283 77.8295 L 65.7432 77.1282 " />
</g>
<g   fill="none"
   stroke="rgb(0, 0, 0)"
   stroke-linecap="butt"
   stroke-linejoin="miter"
   stroke-width="1.0"
   transform="scale(1, -1)"
  >
<path d="M-49.7803, -80.6699 C-49.6874, -80.5094 -49.6336, -80.3283 -49.6339, -80.1771 " /><path d="M-49.6339, -80.1771 C-49.6336, -80.0255 -49.6874, -79.9066 -49.7803, -79.8534 " /><path d="M-55.4372, -83.9358 C-55.6222, -83.829 -55.9593, -83.6344 -56.1443, -83.5276 " /><path d="M-49.7803, -34.1296 C-49.6874, -34.1832 -49.6336, -34.2143 -49.6339, -34.2141 " /><path d="M-55.4372, -37.3955 C-55.5297, -37.5562 -55.6596, -37.6934 -55.7907, -37.7688 " /><path d="M-55.7907, -37.7688 C-55.9218, -37.8448 -56.0518, -37.8577 -56.1443, -37.8038 " /><path id= "7" d=" M -56.9221 -75.7301 L -49.7803 -79.8534 " />
<path id= "8" d=" M -56.215 -75.3218 L -56.9221 -75.7301 " />
<path id= "9" d=" M -65.4074 -78.1795 L -56.1443 -83.5276 " />
<path id= "10" d=" M -58.3363 -74.0971 L -56.215 -75.3218 " />
<path id= "11" d=" M -58.3363 -74.0971 L -65.4074 -78.1795 " />
<path id= "12" d=" M -65.4074 -92.4682 L -65.4074 -78.1795 " />
<path id= "13" d=" M -45.9975 -80.4454 L 58.0183 -20.3919 " />
<path d="M-65.4074 -92.4682 A5 2.88675 -120 0 1 -64.3718 -94.7571" />
<path id= "15" d=" M 61.1647 -14.1256 L 61.1647 71.6886 " />
<path d="M64.3718 94.7571 A5 2.88675 -120 0 1 61.8718 94.5095" />
<path id= "17" d=" M 29.6985 75.9342 L 61.8718 94.5095 " />
<path id= "18" d=" M 32.5269 74.3012 L 29.6985 75.9342 " />
<path id= "19" d=" M -61.8718 23.066 L -29.6985 41.6413 " />
<path id= "20" d=" M -26.8701 40.0083 L 32.5269 74.3012 " />
<path id= "21" d=" M -26.8701 40.0083 L -29.6985 41.6413 " />
<path d="M-65.4074 16.9423 A5 2.88675 60 0 0 -61.8718 23.066" />
<path id= "23" d=" M -65.4074 -32.4557 L -56.1443 -37.8038 " />
<path id= "24" d=" M -65.4074 -32.4557 L -65.4074 16.9423 " />
<path id= "25" d=" M -56.215 -75.3218 L -56.215 -37.763 " />
<path d="M-51.6366 -77.1897 A3.5 2.02073 -120 0 1 -53.7178 -77.58" />
<path d="M59.3792 -13.0947 A3.5 2.02073 -120 0 1 55.8792 -19.1569" />
<path id= "28" d=" M -58.3363 -74.0971 L -58.3363 -36.5382 " />
<path id= "29" d=" M 29.6985 75.9342 L 29.6985 72.6682 " />
<path d="M-44.5477 -82.4662 A3.5 2.02073 -120 0 1 -45.2726 -80.8639" />
<path d="M-45.2726 -80.8639 A3.5 2.02073 -120 0 1 -48.7726 -86.9261" />
<path d="M-48.7726 -86.9261 A3.5 2.02073 -120 0 1 -44.5477 -82.4662" />
<path d="M66.468 -18.3712 A3.5 2.02073 -120 0 1 65.7432 -16.769" />
<path d="M65.7432 -16.769 A3.5 2.02073 -120 0 1 62.2432 -22.8311" />
<path d="M62.2432 -22.8311 A3.5 2.02073 -120 0 1 66.468 -18.3712" />
<path d="M-44.5477 11.431 A3.5 2.02073 -120 0 1 -45.2726 13.0332" />
<path d="M-45.2726 13.0332 A3.5 2.02073 -120 0 1 -48.7726 6.97099" />
<path d="M-48.7726 6.97099 A3.5 2.02073 -120 0 1 -44.5477 11.431" />
<path d="M66.468 75.5259 A3.5 2.02073 -120 0 1 65.7432 77.1282" />
<path d="M65.7432 77.1282 A3.5 2.02073 -120 0 1 62.2432 71.066" />
<path d="M62.2432 71.066 A3.5 2.02073 -120 0 1 66.468 75.5259" />
<path d="M-46.1387 -83.3847 A1.25 0.721688 -120 0 1 -46.3976 -82.8125" />
<path d="M-46.3976 -82.8125 A1.25 0.721688 -120 0 1 -47.6476 -84.9776" />
<path d="M-47.6476 -84.9776 A1.25 0.721688 -120 0 1 -46.1387 -83.3847" />
<path d="M64.877 -19.2897 A1.25 0.721688 -120 0 1 64.6182 -18.7175" />
<path d="M64.6182 -18.7175 A1.25 0.721688 -120 0 1 63.3682 -20.8826" />
<path d="M63.3682 -20.8826 A1.25 0.721688 -120 0 1 64.877 -19.2897" />
<path d="M-46.1387 10.5124 A1.25 0.721688 -120 0 1 -46.3976 11.0846" />
<path d="M-46.3976 11.0846 A1.25 0.721688 -120 0 1 -47.6476 8.91955" />
<path d="M-47.6476 8.91955 A1.25 0.721688 -120 0 1 -46.1387 10.5124" />
<path d="M64.877 74.6074 A1.25 0.721688 -120 0 1 64.6182 75.1796" />
<path d="M64.6182 75.1796 A1.25 0.721688 -120 0 1 63.3682 73.0145" />
<path d="M63.3682 73.0145 A1.25 0.721688 -120 0 1 64.877 74.6074" />
</g>
<!-- Wedge Profile -->
<g transform="translate(58.029,225.030) scale(0.333333,-0.333333)" stroke="#1a1a1a" stroke-width="2.8" fill="none">
<path id= "1" d=" M 0 0 L 0 -100.823 " />
<path d="M-2.22045e-16 -100.823 A1 1 0 0 1 1 -101.823" /><path id= "3" d=" M 0 0 L 100.823 0 " />
<path id= "4" d=" M 1 -101.823 L 3 -101.823 " />
<path d="M101.823 -1 A1 1 0 0 1 100.823 2.22045e-16" /><path id= "6" d=" M 3 -98.8234 L 3 -101.823 " />
<path id= "7" d=" M 101.823 -1 L 101.823 -3 " />
<path id= "8" d=" M 98.8234 -3 L 3 -98.8234 " />
<path id= "9" d=" M 98.8234 -3 L 101.823 -3 " />
<path id= "10" d=" M 98.8234 -3 L 3 -98.8234 " />
</g>
<!-- Wedge Bottom -->
<g transform="translate(200.000,258.971) scale(0.333333,-0.333333)" stroke="#1a1a1a" stroke-width="2.8" fill="none">
<path id= "1" d=" M 40 0 L 40 100.823 " />
<path d="M40, 100.823 Q40, 100.993 40, 101.154  Q40, 101.259 40, 101.355  Q40, 101.449 40, 101.53  Q40, 101.568 40, 101.605  Q40, 101.638 40, 101.67  Q40, 101.697 40, 101.724  Q40, 101.746 40, 101.767  Q40, 101.783 40, 101.798  Q40, 101.808 40, 101.817  Q40, 101.82 40, 101.823 " /><path id= "3" d=" M 40 0 L -40 0 " />
<path id= "4" d=" M -40 0 L -40 100.823 " />
<circle cx ="0" cy ="81.8234" r ="1.6" /><circle cx ="24.5" cy ="11.9117" r ="1.5" /><circle cx ="-33.5" cy ="11.9117" r ="1.5" /><circle cx ="24.5" cy ="60.9117" r ="1.5" /><circle cx ="-33.5" cy ="60.9117" r ="1.5" /><path id= "10" d=" M 40 101.823 L -40 101.823 " />
<path d="M-40, 100.823 Q-40, 100.993 -40, 101.154  Q-40, 101.259 -40, 101.355  Q-40, 101.449 -40, 101.53  Q-40, 101.568 -40, 101.605  Q-40, 101.638 -40, 101.67  Q-40, 101.697 -40, 101.724  Q-40, 101.746 -40, 101.767  Q-40, 101.783 -40, 101.798  Q-40, 101.808 -40, 101.817  Q-40, 101.82 -40, 101.823 " />
</g>
<!-- Wedge ISO -->
<g transform="translate(347.000,248.928) scale(0.333333,-0.333333)" stroke="#1a1a1a" stroke-width="2.8" fill="none">
<path id= "1" d=" M -28.4914 99.1097 L 28.0772 66.4498 " />
<path id= "2" d=" M -100.077 -24.8806 L -43.5086 -57.5404 " />
</g>
<g   fill="none"
   stroke="rgb(0, 0, 0)"
   stroke-linecap="butt"
   stroke-linejoin="miter"
   stroke-width="1.0"
   transform="scale(1, -1)"
  >
<path d="M-28.4914 99.1097 A1 0.57735 -120 0 1 -28.9914 99.0601" />
<path id= "2" d=" M -28.9914 99.0601 L -30.4056 98.2436 " />
<path d="M-100.284 -24.4228 A1 0.57735 -120 0 1 -100.077 -24.8806" />
<path id= "4" d=" M -30.4056 95.7941 L -30.4056 98.2436 " />
<path id= "5" d=" M -100.284 -24.4228 L -100.284 -22.7898 " />
<path id= "6" d=" M -98.163 -21.5651 L -30.4056 95.7941 " />
<path id= "7" d=" M -98.163 -21.5651 L -100.284 -22.7898 " />
<path id= "8" d=" M 28.2843 -16.3299 L 28.2843 65.992 " />
<path d="M28.2843 65.992 A1 0.57735 -120 0 1 28.0772 66.4498" />
<path d="M28.0772 66.4498 A1 0.57735 -120 0 1 27.5772 66.4003" />
<path id= "11" d=" M 28.2843 -16.3299 L -43.0086 -57.4909 " />
<path d="M-18.9346 -8.44495 A3.5 2.02073 0 0 1 -20.7839 -9.16756" />
<path d="M-33.2161 -19.5599 A3.5 2.02073 0 0 1 -38.7839 -19.5599" />
<path d="M-51.2161 -29.9522 A3.5 2.02073 0 0 1 -56.7839 -29.9522" />
<path id= "15" d=" M 27.5772 66.4003 L 26.163 65.5838 " />
<path id= "16" d=" M -30.4056 98.2436 L 26.163 65.5838 " />
<path d="M-43.7157 -57.0827 A1 0.57735 -120 0 1 -43.5086 -57.5404" />
<path d="M-43.5086 -57.5404 A1 0.57735 -120 0 1 -43.0086 -57.4909" />
<path id= "19" d=" M -27.5772 94.1611 L -30.4056 95.7941 " />
<path id= "20" d=" M -27.5772 94.1611 L -27.5772 18.3712 " />
<path id= "21" d=" M 26.163 63.1343 L 26.163 65.5838 " />
<path id= "22" d=" M 23.3345 64.7673 L 26.163 63.1343 " />
<path d="M-18.3848 17.8908 A1.5 0.866025 120 0 1 -20.1954 19.8022" />
<path d="M-20.1954 19.8022 A1.5 0.866025 120 0 1 -18.6954 17.2042" />
<path d="M-18.6954 17.2042 A1.5 0.866025 120 0 1 -18.3848 17.8908" />
<path d="M-18.3848 57.8992 A1.5 0.866025 120 0 1 -20.1954 59.8106" />
<path d="M-20.1954 59.8106 A1.5 0.866025 120 0 1 -18.6954 57.2125" />
<path d="M-18.6954 57.2125 A1.5 0.866025 120 0 1 -18.3848 57.8992" />
<path d="M-0.989949 64.9306 A1.6 0.92376 120 0 1 -2.92132 66.9694" />
<path d="M-2.92132 66.9694 A1.6 0.92376 120 0 1 -1.32132 64.1981" />
<path d="M-1.32132 64.1981 A1.6 0.92376 120 0 1 -0.989949 64.9306" />
<path id= "32" d=" M -100.284 -22.7898 L -43.7157 -55.4497 " />
<path id= "33" d=" M -43.7157 -57.0827 L -43.7157 -55.4497 " />
<path id= "34" d=" M -95.3345 -23.198 L -27.5772 94.1611 " />
<path id= "35" d=" M -98.163 -21.5651 L -95.3345 -23.198 " />
<path id= "36" d=" M -41.5944 -54.2249 L -43.7157 -55.4497 " />
<path id= "37" d=" M -41.5944 -54.2249 L -44.4228 -52.5919 " />
<path id= "38" d=" M -29.6985 14.6969 L -95.3345 -23.198 " />
<path d="M-20.4749 -9.37168 A3.5 2.02073 0 0 1 -19.67 -9.71869" />
<path d="M-17.4904 -5.94362 A3.5 2.02073 0 0 1 -21.5 -7.94282" />
<path d="M-21.5 -7.94282 A3.5 2.02073 0 0 1 -20.4749 -9.37168" />
<path d="M-38.4749 -19.764 A3.5 2.02073 0 0 1 -32.5 -18.3351" />
<path d="M-32.5 -18.3351 A3.5 2.02073 0 0 1 -39.5 -18.3351" />
<path d="M-39.5 -18.3351 A3.5 2.02073 0 0 1 -38.4749 -19.764" />
<path d="M-56.4749 -30.1563 A3.5 2.02073 0 0 1 -50.5 -28.7274" />
<path d="M-50.5 -28.7274 A3.5 2.02073 0 0 1 -57.5 -28.7274" />
<path d="M-57.5 -28.7274 A3.5 2.02073 0 0 1 -56.4749 -30.1563" />
<path id= "48" d=" M -41.5944 -54.2249 L 26.163 63.1343 " />
<path d="M-29.6985 14.6969 A3 1.73205 -120 0 1 -27.5772 18.3712" />
<path id= "50" d=" M -44.4228 -52.5919 L 23.3345 64.7673 " />
</g>
</svg>